<svg xmlns="http://www.w3.org/2000/svg" xmlns:xlink="http://www.w3.org/1999/xlink" width="436.049" height="801.801" viewBox="0 0 436.049 801.801">
  <defs>
    <clipPath id="clip-path">
      <path id="path3384" d="M0-682.665H20.88v20.88H0Z" transform="translate(0 682.665)" fill="#fff"/>
    </clipPath>
  </defs>
  <g id="그룹_837" data-name="그룹 837" transform="translate(1167.586 1247.344)">
    <g id="information_1_" data-name="information (1)" transform="translate(-1165.709 -743.743)">
      <g id="그룹_788" data-name="그룹 788">
        <path id="패스_191" data-name="패스 191" d="M7.072,0a7.072,7.072,0,1,0,7.072,7.072A7.1,7.1,0,0,0,7.072,0ZM7.9,10.387a.829.829,0,0,1-1.657,0V6.243a.829.829,0,0,1,1.657,0Zm-.829-5.8A.829.829,0,1,1,7.9,3.757.83.83,0,0,1,7.072,4.586Z" fill="#acacac"/>
      </g>
    </g>
    <g id="analysis-board" transform="translate(-1166.217 -674.762)">
      <path id="패스_189" data-name="패스 189" d="M27.061,28.137H25.917a.54.54,0,0,0-.512.346l-.437,1.024-1.385-3.281a.585.585,0,0,0-1.039,0l-.813,1.912H20.95a.557.557,0,1,0,0,1.114h1.159a.54.54,0,0,0,.512-.346l.437-1.024,1.385,3.281a.555.555,0,0,0,.512.346.54.54,0,0,0,.512-.346l.813-1.912h.768a.556.556,0,0,0,.557-.557.525.525,0,0,0-.542-.557Z" transform="translate(-15.199 -19.868)"/>
      <path id="패스_190" data-name="패스 190" d="M16.588,15.6l-2.829-2.829a6.31,6.31,0,1,0-4.937,2.394,6.208,6.208,0,0,0,3.929-1.385l2.831,2.829a.714.714,0,0,0,.51.211.772.772,0,0,0,.512-.211.714.714,0,0,0-.015-1.009ZM8.821,13.717A4.884,4.884,0,1,1,13.713,8.84,4.888,4.888,0,0,1,8.821,13.717Z" transform="translate(0)"/>
    </g>
    <g id="_x31_5" transform="translate(-1168.446 -1061.116)">
      <path id="패스_192" data-name="패스 192" d="M18.3,16.62a.764.764,0,0,0,.761-.761V2.962A1.469,1.469,0,0,0,17.592,1.5H7.3V15.1H5.776V1.5H5.2A2.343,2.343,0,0,0,2.86,3.837v13.6c0,.009,0,.016.005.024A2.337,2.337,0,0,0,5.2,19.772H18.3a.761.761,0,0,0,0-1.523H5.2a.815.815,0,0,1,0-1.629H18.3ZM12.4,5.2a.766.766,0,0,1,.777.762.761.761,0,0,1-1.523,0A.762.762,0,0,1,12.4,5.2Zm-.746,3.678a.761.761,0,1,1,1.523,0v3.015a.761.761,0,0,1-1.523,0Z" transform="translate(0)" fill="#fff"/>
    </g>
    <g id="_x31_5-2" data-name="_x31_5" transform="translate(-1041.446 -1061.116)">
      <path id="패스_192-2" data-name="패스 192" d="M18.3,16.62a.764.764,0,0,0,.761-.761V2.962A1.469,1.469,0,0,0,17.592,1.5H7.3V15.1H5.776V1.5H5.2A2.343,2.343,0,0,0,2.86,3.837v13.6c0,.009,0,.016.005.024A2.337,2.337,0,0,0,5.2,19.772H18.3a.761.761,0,0,0,0-1.523H5.2a.815.815,0,0,1,0-1.629H18.3ZM12.4,5.2a.766.766,0,0,1,.777.762.761.761,0,0,1-1.523,0A.762.762,0,0,1,12.4,5.2Zm-.746,3.678a.761.761,0,1,1,1.523,0v3.015a.761.761,0,0,1-1.523,0Z" transform="translate(0)"/>
    </g>
    <g id="capitol" transform="translate(-1171.586 -980.344)">
      <rect id="사각형_185" data-name="사각형 185" width="21" height="1" rx="0.5" transform="translate(4 24)" fill="#fff"/>
      <path id="패스_198" data-name="패스 198" d="M9.821,26.382A.383.383,0,0,0,9.439,26H6.382A.383.383,0,0,0,6,26.382V36.7H9.821Z" transform="translate(-1.236 -13.594)" fill="#fff"/>
      <path id="패스_199" data-name="패스 199" d="M19,32h2.675v8.406H19Z" transform="translate(-9.268 -17.301)" fill="#fff"/>
      <path id="패스_200" data-name="패스 200" d="M28.5,32h2.675v8.406H28.5Z" transform="translate(-15.138 -17.301)" fill="#fff"/>
      <path id="패스_201" data-name="패스 201" d="M38,32h2.675v8.406H38Z" transform="translate(-21.008 -17.301)" fill="#fff"/>
      <path id="패스_202" data-name="패스 202" d="M51.821,26.382A.383.383,0,0,0,51.439,26H48.382a.383.383,0,0,0-.382.382V36.7h3.821Z" transform="translate(-27.187 -13.594)" fill="#fff"/>
      <path id="패스_203" data-name="패스 203" d="M24.38,9.369V7.45c1.572.123,2.034.769,3.783.753a.381.381,0,0,0,.382-.382V5.146a.381.381,0,0,0-.382-.382A5.413,5.413,0,0,1,26.2,4.4,6.136,6.136,0,0,0,24,4a.383.383,0,0,0-.382.382V9.369a4.958,4.958,0,0,0-4.566,4.566h9.9A4.964,4.964,0,0,0,24.38,9.369Z" transform="translate(-9.299 0)" fill="#fff"/>
    </g>
    <g id="capitol-2" data-name="capitol" transform="translate(-1044.586 -980.344)">
      <rect id="사각형_185-2" data-name="사각형 185" width="21" height="1" rx="0.5" transform="translate(4 24)"/>
      <path id="패스_198-2" data-name="패스 198" d="M9.821,26.382A.383.383,0,0,0,9.439,26H6.382A.383.383,0,0,0,6,26.382V36.7H9.821Z" transform="translate(-1.236 -13.594)"/>
      <path id="패스_199-2" data-name="패스 199" d="M19,32h2.675v8.406H19Z" transform="translate(-9.268 -17.301)"/>
      <path id="패스_200-2" data-name="패스 200" d="M28.5,32h2.675v8.406H28.5Z" transform="translate(-15.138 -17.301)"/>
      <path id="패스_201-2" data-name="패스 201" d="M38,32h2.675v8.406H38Z" transform="translate(-21.008 -17.301)"/>
      <path id="패스_202-2" data-name="패스 202" d="M51.821,26.382A.383.383,0,0,0,51.439,26H48.382a.383.383,0,0,0-.382.382V36.7h3.821Z" transform="translate(-27.187 -13.594)"/>
      <path id="패스_203-2" data-name="패스 203" d="M24.38,9.369V7.45c1.572.123,2.034.769,3.783.753a.381.381,0,0,0,.382-.382V5.146a.381.381,0,0,0-.382-.382A5.413,5.413,0,0,1,26.2,4.4,6.136,6.136,0,0,0,24,4a.383.383,0,0,0-.382.382V9.369a4.958,4.958,0,0,0-4.566,4.566h9.9A4.964,4.964,0,0,0,24.38,9.369Z" transform="translate(-9.299 0)"/>
    </g>
    <g id="location_5_" data-name="location (5)" transform="translate(-1367.147 -1211.344)">
      <g id="Icon" transform="translate(201.562 325)">
        <path id="패스_204" data-name="패스 204" d="M202.032,373h3.06l-.578,2.313h-2.566a.386.386,0,0,1-.374-.479Z" transform="translate(-201.562 -354.497)" fill="#fff" fill-rule="evenodd"/>
        <path id="패스_205" data-name="패스 205" d="M224.363,373l.459,1.834a.386.386,0,0,1-.374.479H211.281l.578-2.313Z" transform="translate(-207.534 -354.497)" fill="#fff" fill-rule="evenodd"/>
        <path id="패스_206" data-name="패스 206" d="M240.148,367.313h-2.867l.578-2.313h1.41a.386.386,0,0,1,.374.292Z" transform="translate(-223.512 -349.581)" fill="#fff" fill-rule="evenodd"/>
        <path id="패스_207" data-name="패스 207" d="M207.82,365h-3.66a.386.386,0,0,0-.374.292l-.5,2.021h6.755Z" transform="translate(-202.618 -349.581)" fill="#fff" fill-rule="evenodd"/>
        <path id="패스_208" data-name="패스 208" d="M227.2,367.313h3.093l.578-2.313h-1.455Z" transform="translate(-217.315 -349.581)" fill="#fff" fill-rule="evenodd"/>
        <path id="패스_209" data-name="패스 209" d="M206.867,337.207a7.324,7.324,0,1,1,10.914,0l-5.179,5.406a.386.386,0,0,1-.557,0Zm5.457-7.2a2.313,2.313,0,1,0,2.313,2.313A2.314,2.314,0,0,0,212.324,330.011Z" transform="translate(-203.675 -325)" fill="#fff" fill-rule="evenodd"/>
      </g>
    </g>
    <g id="location_5_2" data-name="location (5)" transform="translate(-1240.147 -1211.344)">
      <g id="Icon-2" data-name="Icon" transform="translate(201.562 325)">
        <path id="패스_204-2" data-name="패스 204" d="M202.032,373h3.06l-.578,2.313h-2.566a.386.386,0,0,1-.374-.479Z" transform="translate(-201.562 -354.497)" fill-rule="evenodd"/>
        <path id="패스_205-2" data-name="패스 205" d="M224.363,373l.459,1.834a.386.386,0,0,1-.374.479H211.281l.578-2.313Z" transform="translate(-207.534 -354.497)" fill-rule="evenodd"/>
        <path id="패스_206-2" data-name="패스 206" d="M240.148,367.313h-2.867l.578-2.313h1.41a.386.386,0,0,1,.374.292Z" transform="translate(-223.512 -349.581)" fill-rule="evenodd"/>
        <path id="패스_207-2" data-name="패스 207" d="M207.82,365h-3.66a.386.386,0,0,0-.374.292l-.5,2.021h6.755Z" transform="translate(-202.618 -349.581)" fill-rule="evenodd"/>
        <path id="패스_208-2" data-name="패스 208" d="M227.2,367.313h3.093l.578-2.313h-1.455Z" transform="translate(-217.315 -349.581)" fill-rule="evenodd"/>
        <path id="패스_209-2" data-name="패스 209" d="M206.867,337.207a7.324,7.324,0,1,1,10.914,0l-5.179,5.406a.386.386,0,0,1-.557,0Zm5.457-7.2a2.313,2.313,0,1,0,2.313,2.313A2.314,2.314,0,0,0,212.324,330.011Z" transform="translate(-203.675 -325)" fill-rule="evenodd"/>
      </g>
    </g>
    <path id="walking_1_" data-name="walking (1)" d="M8.034,9.982,11.8,7.244a2.346,2.346,0,0,1,1.462-.452A3.077,3.077,0,0,1,16.12,8.933a5.189,5.189,0,0,0,.6,1.39,5.871,5.871,0,0,0,4.7,2.35v2.352a8.216,8.216,0,0,1-6.353-3l-.82,4.652,2.424,2.035L19.287,25.9l-2.211.8-2.4-6.591L10.69,16.767a2.352,2.352,0,0,1-.839-2.239l.6-3.393-.8.579-2.5,3.444-1.9-1.383L8.014,9.968ZM14.953,6.2a2.352,2.352,0,1,1,1.663-.689A2.352,2.352,0,0,1,14.953,6.2Zm-3.5,15.5-3.78,4.5L5.876,24.7l3.5-4.171.877-2.564L12.36,19.73Z" transform="translate(-1170.835 -1160.049)" fill="#fff"/>
    <path id="walking_1_2" data-name="walking (1)" d="M8.034,9.982,11.8,7.244a2.346,2.346,0,0,1,1.462-.452A3.077,3.077,0,0,1,16.12,8.933a5.189,5.189,0,0,0,.6,1.39,5.871,5.871,0,0,0,4.7,2.35v2.352a8.216,8.216,0,0,1-6.353-3l-.82,4.652,2.424,2.035L19.287,25.9l-2.211.8-2.4-6.591L10.69,16.767a2.352,2.352,0,0,1-.839-2.239l.6-3.393-.8.579-2.5,3.444-1.9-1.383L8.014,9.968ZM14.953,6.2a2.352,2.352,0,1,1,1.663-.689A2.352,2.352,0,0,1,14.953,6.2Zm-3.5,15.5-3.78,4.5L5.876,24.7l3.5-4.171.877-2.564L12.36,19.73Z" transform="translate(-1043.835 -1160.049)"/>
    <g id="search_3_" data-name="search (3)" transform="translate(-1167.586 -1247.344)">
      <g id="그룹_791" data-name="그룹 791">
        <g id="그룹_790" data-name="그룹 790">
          <path id="빼기_3" data-name="빼기 3" d="M-9.859,1153a.854.854,0,0,1-.608-.252l-5.031-5.03a9.319,9.319,0,0,1-6.049,2.189,9.392,9.392,0,0,1-6.686-2.768A9.394,9.394,0,0,1-31,1140.453a9.392,9.392,0,0,1,2.767-6.686A9.392,9.392,0,0,1-21.547,1131a9.393,9.393,0,0,1,6.686,2.767,9.392,9.392,0,0,1,2.767,6.686,9.318,9.318,0,0,1-2.189,6.049l5.03,5.031a.854.854,0,0,1,.252.608.852.852,0,0,1-.252.607A.854.854,0,0,1-9.859,1153Zm-11.379-17.783a1.049,1.049,0,0,0-.539.148l-4.064,2.422a.965.965,0,0,0-.477.822v5.328a1,1,0,0,0,1.016.969h8.128a1,1,0,0,0,1.016-.969v-5.328a.965.965,0,0,0-.477-.822l-4.064-2.422A1.049,1.049,0,0,0-21.239,1135.217Zm3.048,7.751h-6.1v-3.823l3.048-1.816,3.048,1.816v3.822Z" transform="translate(31 -1131)" fill="#fff"/>
        </g>
      </g>
    </g>
    <g id="search_3_2" data-name="search (3)" transform="translate(-1040.586 -1247.344)">
      <g id="그룹_791-2" data-name="그룹 791">
        <g id="그룹_790-2" data-name="그룹 790">
          <path id="빼기_3-2" data-name="빼기 3" d="M-9.859,1153a.854.854,0,0,1-.608-.252l-5.031-5.03a9.319,9.319,0,0,1-6.049,2.189,9.392,9.392,0,0,1-6.686-2.768A9.394,9.394,0,0,1-31,1140.453a9.392,9.392,0,0,1,2.767-6.686A9.392,9.392,0,0,1-21.547,1131a9.393,9.393,0,0,1,6.686,2.767,9.392,9.392,0,0,1,2.767,6.686,9.318,9.318,0,0,1-2.189,6.049l5.03,5.031a.854.854,0,0,1,.252.608.852.852,0,0,1-.252.607A.854.854,0,0,1-9.859,1153Zm-11.379-17.783a1.049,1.049,0,0,0-.539.148l-4.064,2.422a.965.965,0,0,0-.477.822v5.328a1,1,0,0,0,1.016.969h8.128a1,1,0,0,0,1.016-.969v-5.328a.965.965,0,0,0-.477-.822l-4.064-2.422A1.049,1.049,0,0,0-21.239,1135.217Zm3.048,7.751h-6.1v-3.823l3.048-1.816,3.048,1.816v3.822Z" transform="translate(31 -1131)"/>
        </g>
      </g>
    </g>
    <g id="_02_User" data-name="02 User" transform="translate(-1163.58 -600.585)">
      <path id="패스_168" data-name="패스 168" d="M.678,14A.684.684,0,0,1,.194,12.83L12.827.2a.684.684,0,0,1,.967.967L1.161,13.8a.682.682,0,0,1-.483.2Z" transform="translate(0 0)" fill="#fff" stroke="#fff" stroke-width="0.5"/>
      <path id="패스_169" data-name="패스 169" d="M13.313,14a.682.682,0,0,1-.483-.2L.2,1.164A.684.684,0,0,1,1.164.2L13.8,12.83A.684.684,0,0,1,13.313,14Z" transform="translate(-0.003 0)" fill="#fff" stroke="#fff" stroke-width="0.5"/>
    </g>
    <circle id="타원_42" data-name="타원 42" cx="10" cy="10" r="10" transform="translate(-1036.666 -752.493)" fill="#fff"/>
    <path id="polygon_1_" data-name="polygon (1)" d="M21.709,19.113l-10.282-7.47a.722.722,0,0,0-.848,0L.3,19.113a.721.721,0,0,0-.262.807L3.963,32.006a.721.721,0,0,0,.686.5H17.358a.721.721,0,0,0,.686-.5l3.927-12.087a.721.721,0,0,0-.262-.807Z" transform="translate(-1037.003 -663.033)" fill="#fff"/>
    <rect id="사각형_365" data-name="사각형 365" width="18.667" height="18.667" transform="translate(-1035.333 -701.344)" fill="#fff"/>
    <g id="refresh_4_" data-name="refresh (4)" transform="translate(-1167.496 -532.982)">
      <path id="패스_234" data-name="패스 234" d="M12.313,8.5a6.7,6.7,0,0,0-1.935.282.591.591,0,1,1-.34-1.132,7.878,7.878,0,0,1,2.274-.332,6.841,6.841,0,1,1-6.9,6.841,6.792,6.792,0,0,1,1.165-3.806.591.591,0,0,1,.98.661A5.61,5.61,0,0,0,6.6,14.158,5.714,5.714,0,1,0,12.313,8.5Z" transform="translate(0 -1.88)" fill="#fff" fill-rule="evenodd"/>
      <path id="패스_235" data-name="패스 235" d="M16.1,3.845a.591.591,0,0,1,.174.818l-1,1.544,1.558,1a.591.591,0,1,1-.64.994L14.138,6.879a.591.591,0,0,1-.176-.819l1.324-2.041a.591.591,0,0,1,.818-.174Z" transform="translate(-4.454)" fill="#fff" fill-rule="evenodd"/>
    </g>
    <path id="패스_237" data-name="패스 237" d="M25.8,24.2l-3.652-3.652a8.386,8.386,0,1,0-1.592,1.592L24.2,25.8A1.126,1.126,0,0,0,25.8,24.2ZM11.168,19.815a6.114,6.114,0,1,1,4.324,1.791,6.122,6.122,0,0,1-4.324-1.791Z" transform="translate(-903.129 -692.455)" fill="#fff"/>
    <path id="패스_238" data-name="패스 238" d="M25.8,24.2l-3.652-3.652a8.386,8.386,0,1,0-1.592,1.592L24.2,25.8A1.126,1.126,0,0,0,25.8,24.2ZM11.168,19.815a6.114,6.114,0,1,1,4.324,1.791,6.122,6.122,0,0,1-4.324-1.791Z" transform="translate(-828.129 -692.455)" fill="#d3f546"/>
    <g id="filter_1_" data-name="filter (1)" transform="translate(-896 -629.636)">
      <path id="패스_211" data-name="패스 211" d="M0,5.165A1.117,1.117,0,0,1,1.062,4h19.12a1.117,1.117,0,0,1,1.062,1.165A1.117,1.117,0,0,1,20.182,6.33H1.062A1.117,1.117,0,0,1,0,5.165Z" fill="#fff"/>
      <path id="패스_212" data-name="패스 212" d="M3,10.165A1.1,1.1,0,0,1,4.018,9H16.237a1.1,1.1,0,0,1,1.018,1.165,1.1,1.1,0,0,1-1.018,1.165H4.018A1.1,1.1,0,0,1,3,10.165Z" transform="translate(0.494 0.824)" fill="#fff"/>
      <path id="패스_213" data-name="패스 213" d="M8.165,14a1.165,1.165,0,0,0,0,2.33h4.659a1.165,1.165,0,0,0,0-2.33Z" transform="translate(0.128 1.648)" fill="#fff"/>
    </g>
    <g id="filter_1_2" data-name="filter (1)" transform="translate(-821 -629.636)">
      <path id="패스_211-2" data-name="패스 211" d="M0,5.165A1.117,1.117,0,0,1,1.062,4h19.12a1.117,1.117,0,0,1,1.062,1.165A1.117,1.117,0,0,1,20.182,6.33H1.062A1.117,1.117,0,0,1,0,5.165Z" fill="#d3f546"/>
      <path id="패스_212-2" data-name="패스 212" d="M3,10.165A1.1,1.1,0,0,1,4.018,9H16.237a1.1,1.1,0,0,1,1.018,1.165,1.1,1.1,0,0,1-1.018,1.165H4.018A1.1,1.1,0,0,1,3,10.165Z" transform="translate(0.494 0.824)" fill="#d3f546"/>
      <path id="패스_213-2" data-name="패스 213" d="M8.165,14a1.165,1.165,0,0,0,0,2.33h4.659a1.165,1.165,0,0,0,0-2.33Z" transform="translate(0.128 1.648)" fill="#d3f546"/>
    </g>
    <g id="layers_1_" data-name="layers (1)" transform="translate(-899 -1207.912)">
      <path id="패스_18" data-name="패스 18" d="M371.251,95.106l-2.329,1.337,2.328,1.337,2.328-1.338Z" transform="translate(-354.277 -90.902)" fill="#fff"/>
      <path id="패스_19" data-name="패스 19" d="M287.237,143.968l2.329,1.338,2.279-1.31-2.328-1.337Z" transform="translate(-276.203 -136.353)" fill="#fff"/>
      <path id="패스_21" data-name="패스 21" d="M125.251,143.359l-2.329-1.337-2.377,1.366,2.328,1.338Z" transform="translate(-116.88 -135.744)" fill="#fff"/>
      <path id="패스_22" data-name="패스 22" d="M47.288,211.368l-5.955-3.422-3.7,2.124,9.648,5.543,9.648-5.543-3.693-2.121Z" transform="translate(-37.634 -198.754)" fill="#fff"/>
      <path id="패스_23" data-name="패스 23" d="M208.031,190.338l-2.375-1.364-2.332,1.392,2.329,1.338Z" transform="translate(-196 -180.62)" fill="#fff"/>
      <path id="패스_24" data-name="패스 24" d="M288.457,50.228l2.329-1.337-2.329-1.337-2.329,1.337Z" transform="translate(-275.143 -45.451)" fill="#fff"/>
      <path id="패스_25" data-name="패스 25" d="M203.335,1.337l2.329,1.337,2.329-1.337L205.664,0Z" transform="translate(-196.01)" fill="#fff"/>
      <path id="패스_26" data-name="패스 26" d="M123.98,50.2l2.28-1.309-2.329-1.337-2.28,1.309Z" transform="translate(-117.937 -45.451)" fill="#fff"/>
      <path id="패스_27" data-name="패스 27" d="M42.472,95.806l-2.329-1.337-2.377,1.365L40.1,97.172Z" transform="translate(-37.761 -90.293)" fill="#fff"/>
      <path id="패스_28" data-name="패스 28" d="M209.052,96.443l-2.329-1.337-2.28,1.309,2.292,1.358Z" transform="translate(-197.07 -90.902)" fill="#fff"/>
      <path id="패스_29" data-name="패스 29" d="M47.288,211.368l-5.955-3.422-3.7,2.124,9.648,5.543,9.648-5.543-3.693-2.121Z" transform="translate(-37.634 -198.754)" fill="#fff"/>
    </g>
    <g id="layers_1_2" data-name="layers (1)" transform="translate(-822 -1207.912)">
      <path id="패스_18-2" data-name="패스 18" d="M371.251,95.106l-2.329,1.337,2.328,1.337,2.328-1.338Z" transform="translate(-354.277 -90.902)" fill="#d3f546"/>
      <path id="패스_19-2" data-name="패스 19" d="M287.237,143.968l2.329,1.338,2.279-1.31-2.328-1.337Z" transform="translate(-276.203 -136.353)" fill="#d3f546"/>
      <path id="패스_21-2" data-name="패스 21" d="M125.251,143.359l-2.329-1.337-2.377,1.366,2.328,1.338Z" transform="translate(-116.88 -135.744)" fill="#d3f546"/>
      <path id="패스_22-2" data-name="패스 22" d="M47.288,211.368l-5.955-3.422-3.7,2.124,9.648,5.543,9.648-5.543-3.693-2.121Z" transform="translate(-37.634 -198.754)" fill="#d3f546"/>
      <path id="패스_23-2" data-name="패스 23" d="M208.031,190.338l-2.375-1.364-2.332,1.392,2.329,1.338Z" transform="translate(-196 -180.62)" fill="#d3f546"/>
      <path id="패스_24-2" data-name="패스 24" d="M288.457,50.228l2.329-1.337-2.329-1.337-2.329,1.337Z" transform="translate(-275.143 -45.451)" fill="#d3f546"/>
      <path id="패스_25-2" data-name="패스 25" d="M203.335,1.337l2.329,1.337,2.329-1.337L205.664,0Z" transform="translate(-196.01)" fill="#d3f546"/>
      <path id="패스_26-2" data-name="패스 26" d="M123.98,50.2l2.28-1.309-2.329-1.337-2.28,1.309Z" transform="translate(-117.937 -45.451)" fill="#d3f546"/>
      <path id="패스_27-2" data-name="패스 27" d="M42.472,95.806l-2.329-1.337-2.377,1.365L40.1,97.172Z" transform="translate(-37.761 -90.293)" fill="#d3f546"/>
      <path id="패스_28-2" data-name="패스 28" d="M209.052,96.443l-2.329-1.337-2.28,1.309,2.292,1.358Z" transform="translate(-197.07 -90.902)" fill="#d3f546"/>
      <path id="패스_29-2" data-name="패스 29" d="M47.288,211.368l-5.955-3.422-3.7,2.124,9.648,5.543,9.648-5.543-3.693-2.121Z" transform="translate(-37.634 -198.754)" fill="#d3f546"/>
    </g>
    <g id="layers_1_3" data-name="layers (1)" transform="translate(-751 -1207.912)">
      <path id="패스_18-3" data-name="패스 18" d="M371.251,95.106l-2.329,1.337,2.328,1.337,2.328-1.338Z" transform="translate(-354.277 -90.902)"/>
      <path id="패스_19-3" data-name="패스 19" d="M287.237,143.968l2.329,1.338,2.279-1.31-2.328-1.337Z" transform="translate(-276.203 -136.353)"/>
      <path id="패스_21-3" data-name="패스 21" d="M125.251,143.359l-2.329-1.337-2.377,1.366,2.328,1.338Z" transform="translate(-116.88 -135.744)"/>
      <path id="패스_22-3" data-name="패스 22" d="M47.288,211.368l-5.955-3.422-3.7,2.124,9.648,5.543,9.648-5.543-3.693-2.121Z" transform="translate(-37.634 -198.754)"/>
      <path id="패스_23-3" data-name="패스 23" d="M208.031,190.338l-2.375-1.364-2.332,1.392,2.329,1.338Z" transform="translate(-196 -180.62)"/>
      <path id="패스_24-3" data-name="패스 24" d="M288.457,50.228l2.329-1.337-2.329-1.337-2.329,1.337Z" transform="translate(-275.143 -45.451)"/>
      <path id="패스_25-3" data-name="패스 25" d="M203.335,1.337l2.329,1.337,2.329-1.337L205.664,0Z" transform="translate(-196.01)"/>
      <path id="패스_26-3" data-name="패스 26" d="M123.98,50.2l2.28-1.309-2.329-1.337-2.28,1.309Z" transform="translate(-117.937 -45.451)"/>
      <path id="패스_27-3" data-name="패스 27" d="M42.472,95.806l-2.329-1.337-2.377,1.365L40.1,97.172Z" transform="translate(-37.761 -90.293)"/>
      <path id="패스_28-3" data-name="패스 28" d="M209.052,96.443l-2.329-1.337-2.28,1.309,2.292,1.358Z" transform="translate(-197.07 -90.902)"/>
      <path id="패스_29-3" data-name="패스 29" d="M47.288,211.368l-5.955-3.422-3.7,2.124,9.648,5.543,9.648-5.543-3.693-2.121Z" transform="translate(-37.634 -198.754)"/>
    </g>
    <g id="global" transform="translate(-899 -1247.344)">
      <path id="패스_183" data-name="패스 183" d="M193.446,350.851a17.842,17.842,0,0,0,1.119,5.979c.621,1.525,1.423,2.435,2.147,2.435s1.526-.91,2.147-2.435a17.84,17.84,0,0,0,1.119-5.979Z" transform="translate(-187.548 -340.869)" fill="#fff"/>
      <path id="패스_184" data-name="패스 184" d="M194.565,162.181a17.841,17.841,0,0,0-1.119,5.979h6.532a17.843,17.843,0,0,0-1.119-5.979c-.621-1.525-1.423-2.435-2.147-2.435S195.186,160.656,194.565,162.181Z" transform="translate(-187.548 -159.746)" fill="#fff"/>
      <path id="패스_185" data-name="패스 185" d="M86.769,358.793a9.384,9.384,0,0,1-.684-1.371,19.479,19.479,0,0,1-1.236-6.57H80.519A9.22,9.22,0,0,0,86.769,358.793Z" transform="translate(-80.519 -340.87)" fill="#fff"/>
      <path id="패스_186" data-name="패스 186" d="M313.688,350.851a19.482,19.482,0,0,1-1.236,6.57,9.392,9.392,0,0,1-.684,1.371,9.22,9.22,0,0,0,6.251-7.941Z" transform="translate(-299.689 -340.869)" fill="#fff"/>
      <path id="패스_187" data-name="패스 187" d="M311.768,168.809a9.4,9.4,0,0,1,.684,1.371,19.48,19.48,0,0,1,1.236,6.57h4.331A9.22,9.22,0,0,0,311.768,168.809Z" transform="translate(-299.689 -168.336)" fill="#fff"/>
      <path id="패스_188" data-name="패스 188" d="M84.848,176.75a19.48,19.48,0,0,1,1.236-6.57,9.385,9.385,0,0,1,.684-1.371,9.22,9.22,0,0,0-6.251,7.941Z" transform="translate(-80.517 -168.336)" fill="#fff"/>
    </g>
    <g id="global-2" data-name="global" transform="translate(-822 -1247.344)">
      <path id="패스_183-2" data-name="패스 183" d="M193.446,350.851a17.842,17.842,0,0,0,1.119,5.979c.621,1.525,1.423,2.435,2.147,2.435s1.526-.91,2.147-2.435a17.84,17.84,0,0,0,1.119-5.979Z" transform="translate(-187.548 -340.869)" fill="#d3f546"/>
      <path id="패스_184-2" data-name="패스 184" d="M194.565,162.181a17.841,17.841,0,0,0-1.119,5.979h6.532a17.843,17.843,0,0,0-1.119-5.979c-.621-1.525-1.423-2.435-2.147-2.435S195.186,160.656,194.565,162.181Z" transform="translate(-187.548 -159.746)" fill="#d3f546"/>
      <path id="패스_185-2" data-name="패스 185" d="M86.769,358.793a9.384,9.384,0,0,1-.684-1.371,19.479,19.479,0,0,1-1.236-6.57H80.519A9.22,9.22,0,0,0,86.769,358.793Z" transform="translate(-80.519 -340.87)" fill="#d3f546"/>
      <path id="패스_186-2" data-name="패스 186" d="M313.688,350.851a19.482,19.482,0,0,1-1.236,6.57,9.392,9.392,0,0,1-.684,1.371,9.22,9.22,0,0,0,6.251-7.941Z" transform="translate(-299.689 -340.869)" fill="#d3f546"/>
      <path id="패스_187-2" data-name="패스 187" d="M311.768,168.809a9.4,9.4,0,0,1,.684,1.371,19.48,19.48,0,0,1,1.236,6.57h4.331A9.22,9.22,0,0,0,311.768,168.809Z" transform="translate(-299.689 -168.336)" fill="#d3f546"/>
      <path id="패스_188-2" data-name="패스 188" d="M84.848,176.75a19.48,19.48,0,0,1,1.236-6.57,9.385,9.385,0,0,1,.684-1.371,9.22,9.22,0,0,0-6.251,7.941Z" transform="translate(-80.517 -168.336)" fill="#d3f546"/>
    </g>
    <g id="global-3" data-name="global" transform="translate(-751 -1247.344)">
      <path id="패스_183-3" data-name="패스 183" d="M193.446,350.851a17.842,17.842,0,0,0,1.119,5.979c.621,1.525,1.423,2.435,2.147,2.435s1.526-.91,2.147-2.435a17.84,17.84,0,0,0,1.119-5.979Z" transform="translate(-187.548 -340.869)"/>
      <path id="패스_184-3" data-name="패스 184" d="M194.565,162.181a17.841,17.841,0,0,0-1.119,5.979h6.532a17.843,17.843,0,0,0-1.119-5.979c-.621-1.525-1.423-2.435-2.147-2.435S195.186,160.656,194.565,162.181Z" transform="translate(-187.548 -159.746)"/>
      <path id="패스_185-3" data-name="패스 185" d="M86.769,358.793a9.384,9.384,0,0,1-.684-1.371,19.479,19.479,0,0,1-1.236-6.57H80.519A9.22,9.22,0,0,0,86.769,358.793Z" transform="translate(-80.519 -340.87)"/>
      <path id="패스_186-3" data-name="패스 186" d="M313.688,350.851a19.482,19.482,0,0,1-1.236,6.57,9.392,9.392,0,0,1-.684,1.371,9.22,9.22,0,0,0,6.251-7.941Z" transform="translate(-299.689 -340.869)"/>
      <path id="패스_187-3" data-name="패스 187" d="M311.768,168.809a9.4,9.4,0,0,1,.684,1.371,19.48,19.48,0,0,1,1.236,6.57h4.331A9.22,9.22,0,0,0,311.768,168.809Z" transform="translate(-299.689 -168.336)"/>
      <path id="패스_188-3" data-name="패스 188" d="M84.848,176.75a19.48,19.48,0,0,1,1.236-6.57,9.385,9.385,0,0,1,.684-1.371,9.22,9.22,0,0,0-6.251,7.941Z" transform="translate(-80.517 -168.336)"/>
    </g>
    <g id="height_1_" data-name="height (1)" transform="translate(-885.548 -1009.472) rotate(47)">
      <path id="패스_16" data-name="패스 16" d="M0,.851v1.7H3.405v1.7H0v1.7H1.7v1.7H0v1.7H3.405v1.7H0v1.7H1.7v1.7H0v1.7a.852.852,0,0,0,.851.851H5.959a.852.852,0,0,0,.851-.851V.851A.852.852,0,0,0,5.959,0H.851A.852.852,0,0,0,0,.851Z" transform="translate(0 0)" fill="#fafafa"/>
    </g>
    <g id="height_1_2" data-name="height (1)" transform="translate(-808.548 -1009.472) rotate(47)">
      <path id="패스_16-2" data-name="패스 16" d="M0,.851v1.7H3.405v1.7H0v1.7H1.7v1.7H0v1.7H3.405v1.7H0v1.7H1.7v1.7H0v1.7a.852.852,0,0,0,.851.851H5.959a.852.852,0,0,0,.851-.851V.851A.852.852,0,0,0,5.959,0H.851A.852.852,0,0,0,0,.851Z" transform="translate(0 0)" fill="#d3f546"/>
    </g>
    <g id="height_1_3" data-name="height (1)" transform="translate(-737.548 -1009.472) rotate(47)">
      <path id="패스_16-3" data-name="패스 16" d="M0,.851v1.7H3.405v1.7H0v1.7H1.7v1.7H0v1.7H3.405v1.7H0v1.7H1.7v1.7H0v1.7a.852.852,0,0,0,.851.851H5.959a.852.852,0,0,0,.851-.851V.851A.852.852,0,0,0,5.959,0H.851A.852.852,0,0,0,0,.851Z" transform="translate(0 0)"/>
    </g>
    <g id="그룹_830" data-name="그룹 830" transform="translate(-899 -972.11)">
      <g id="Area" transform="translate(1.87 1.196)">
        <path id="패스_43" data-name="패스 43" d="M60.142,28.284v14.8h14.8" transform="translate(-60.142 -28.284)" fill="none" stroke="#fafafa" stroke-miterlimit="10" stroke-width="2"/>
        <path id="패스_44" data-name="패스 44" d="M60.142,132.284H71.314v11.172" transform="translate(-60.142 -128.653)" fill="none" stroke="#fafafa" stroke-miterlimit="10" stroke-width="2"/>
        <line id="선_85" data-name="선 85" y1="5.247" x2="5.247" transform="translate(0 3.631)" fill="none" stroke="#fafafa" stroke-miterlimit="10" stroke-width="2"/>
        <line id="선_86" data-name="선 86" x1="5.247" y2="5.247" transform="translate(5.924 9.555)" fill="none" stroke="#fafafa" stroke-miterlimit="10" stroke-width="2"/>
        <line id="선_87" data-name="선 87" y1="9.197" x2="9.197" transform="translate(0 3.631)" fill="none" stroke="#fafafa" stroke-miterlimit="10" stroke-width="2"/>
        <line id="선_88" data-name="선 88" x1="9.197" y2="9.197" transform="translate(1.975 5.605)" fill="none" stroke="#fafafa" stroke-miterlimit="10" stroke-width="2"/>
      </g>
      <path id="image-upload" d="M1.057,2.329l.184-.184c0,2.182,1.257,1.835,1.257,0l.184.184a.629.629,0,0,0,.888-.888L2.314.183a.629.629,0,0,0-.888,0L.169,1.441a.629.629,0,0,0,.888.888Z" transform="translate(17.754 14.128) rotate(90)" fill="#fafafa"/>
      <path id="image-upload-2" data-name="image-upload" d="M1.057,2.329l.184-.184c0,2.182,1.257,1.835,1.257,0l.184.184a.629.629,0,0,0,.888-.888L2.314.183a.629.629,0,0,0-.888,0L.169,1.441a.629.629,0,0,0,.888.888Z" transform="translate(0 0)" fill="#fafafa"/>
    </g>
    <g id="그룹_832" data-name="그룹 832" transform="translate(-822 -972.11)">
      <g id="Area-2" data-name="Area" transform="translate(1.87 1.196)">
        <path id="패스_43-2" data-name="패스 43" d="M60.142,28.284v14.8h14.8" transform="translate(-60.142 -28.284)" fill="none" stroke="#d3f546" stroke-miterlimit="10" stroke-width="2"/>
        <path id="패스_44-2" data-name="패스 44" d="M60.142,132.284H71.314v11.172" transform="translate(-60.142 -128.653)" fill="none" stroke="#d3f546" stroke-miterlimit="10" stroke-width="2"/>
        <line id="선_85-2" data-name="선 85" y1="5.247" x2="5.247" transform="translate(0 3.631)" fill="none" stroke="#d3f546" stroke-miterlimit="10" stroke-width="2"/>
        <line id="선_86-2" data-name="선 86" x1="5.247" y2="5.247" transform="translate(5.924 9.555)" fill="none" stroke="#d3f546" stroke-miterlimit="10" stroke-width="2"/>
        <line id="선_87-2" data-name="선 87" y1="9.197" x2="9.197" transform="translate(0 3.631)" fill="none" stroke="#d3f546" stroke-miterlimit="10" stroke-width="2"/>
        <line id="선_88-2" data-name="선 88" x1="9.197" y2="9.197" transform="translate(1.975 5.605)" fill="none" stroke="#d3f546" stroke-miterlimit="10" stroke-width="2"/>
      </g>
      <path id="image-upload-3" data-name="image-upload" d="M1.057,2.329l.184-.184c0,2.182,1.257,1.835,1.257,0l.184.184a.629.629,0,0,0,.888-.888L2.314.183a.629.629,0,0,0-.888,0L.169,1.441a.629.629,0,0,0,.888.888Z" transform="translate(17.754 14.128) rotate(90)" fill="#d3f546"/>
      <path id="image-upload-4" data-name="image-upload" d="M1.057,2.329l.184-.184c0,2.182,1.257,1.835,1.257,0l.184.184a.629.629,0,0,0,.888-.888L2.314.183a.629.629,0,0,0-.888,0L.169,1.441a.629.629,0,0,0,.888.888Z" transform="translate(0 0)" fill="#d3f546"/>
    </g>
    <g id="그룹_835" data-name="그룹 835" transform="translate(-751 -972.11)">
      <g id="Area-3" data-name="Area" transform="translate(1.87 1.196)">
        <path id="패스_43-3" data-name="패스 43" d="M60.142,28.284v14.8h14.8" transform="translate(-60.142 -28.284)" fill="none" stroke="#000" stroke-miterlimit="10" stroke-width="2"/>
        <path id="패스_44-3" data-name="패스 44" d="M60.142,132.284H71.314v11.172" transform="translate(-60.142 -128.653)" fill="none" stroke="#000" stroke-miterlimit="10" stroke-width="2"/>
        <line id="선_85-3" data-name="선 85" y1="5.247" x2="5.247" transform="translate(0 3.631)" fill="none" stroke="#000" stroke-miterlimit="10" stroke-width="2"/>
        <line id="선_86-3" data-name="선 86" x1="5.247" y2="5.247" transform="translate(5.924 9.555)" fill="none" stroke="#000" stroke-miterlimit="10" stroke-width="2"/>
        <line id="선_87-3" data-name="선 87" y1="9.197" x2="9.197" transform="translate(0 3.631)" fill="none" stroke="#000" stroke-miterlimit="10" stroke-width="2"/>
        <line id="선_88-3" data-name="선 88" x1="9.197" y2="9.197" transform="translate(1.975 5.605)" fill="none" stroke="#000" stroke-miterlimit="10" stroke-width="2"/>
      </g>
      <path id="image-upload-5" data-name="image-upload" d="M1.057,2.329l.184-.184c0,2.182,1.257,1.835,1.257,0l.184.184a.629.629,0,0,0,.888-.888L2.314.183a.629.629,0,0,0-.888,0L.169,1.441a.629.629,0,0,0,.888.888Z" transform="translate(17.754 14.128) rotate(90)"/>
      <path id="image-upload-6" data-name="image-upload" d="M1.057,2.329l.184-.184c0,2.182,1.257,1.835,1.257,0l.184.184a.629.629,0,0,0,.888-.888L2.314.183a.629.629,0,0,0-.888,0L.169,1.441a.629.629,0,0,0,.888.888Z" transform="translate(0 0)"/>
    </g>
    <g id="_3d_10_" data-name="3d (10)" transform="translate(-898 -934.215)">
      <path id="패스_10" data-name="패스 10" d="M38.021,2.739a.543.543,0,0,1,.523,0l5.119,2.812,2.61-1.278L38.679.1a.822.822,0,0,0-.792,0l-7.6,4.172L32.9,5.551Z" transform="translate(-29.655 0)" fill="#fff"/>
      <path id="패스_11" data-name="패스 11" d="M15.054,152.867v-5.455l-2.714-1.328v8.195a.822.822,0,0,0,.438.727l7.642,4.033v-3.011l-5.078-2.68a.543.543,0,0,1-.29-.48Z" transform="translate(-12.34 -140.911)" fill="#fff"/>
      <path id="패스_12" data-name="패스 12" d="M119.678,203.31l4.282,2.26,0-4.756-4.284-2.1Z" transform="translate(-115.878 -191.681)" fill="#fff"/>
      <path id="패스_13" data-name="패스 13" d="M271.3,205.571l4.285-2.26v-4.593l-4.284,2.1Z" transform="translate(-262.135 -191.682)" fill="#fff"/>
      <path id="패스_14" data-name="패스 14" d="M276.631,147.412v5.456a.543.543,0,0,1-.29.48l-5.082,2.68v3.011l7.648-4.034a.822.822,0,0,0,.439-.727v-8.194Z" transform="translate(-262.091 -140.912)" fill="#fff"/>
      <path id="패스_15" data-name="패스 15" d="M141.909,108.317l-4.188,2.3,4.188,2.05,4.188-2.05Z" transform="translate(-133.282 -104.482)" fill="#fff"/>
    </g>
    <g id="_3d_10_2" data-name="3d (10)" transform="translate(-821 -934.215)">
      <path id="패스_10-2" data-name="패스 10" d="M38.021,2.739a.543.543,0,0,1,.523,0l5.119,2.812,2.61-1.278L38.679.1a.822.822,0,0,0-.792,0l-7.6,4.172L32.9,5.551Z" transform="translate(-29.655 0)" fill="#d3f546"/>
      <path id="패스_11-2" data-name="패스 11" d="M15.054,152.867v-5.455l-2.714-1.328v8.195a.822.822,0,0,0,.438.727l7.642,4.033v-3.011l-5.078-2.68a.543.543,0,0,1-.29-.48Z" transform="translate(-12.34 -140.911)" fill="#d3f546"/>
      <path id="패스_12-2" data-name="패스 12" d="M119.678,203.31l4.282,2.26,0-4.756-4.284-2.1Z" transform="translate(-115.878 -191.681)" fill="#d3f546"/>
      <path id="패스_13-2" data-name="패스 13" d="M271.3,205.571l4.285-2.26v-4.593l-4.284,2.1Z" transform="translate(-262.135 -191.682)" fill="#d3f546"/>
      <path id="패스_14-2" data-name="패스 14" d="M276.631,147.412v5.456a.543.543,0,0,1-.29.48l-5.082,2.68v3.011l7.648-4.034a.822.822,0,0,0,.439-.727v-8.194Z" transform="translate(-262.091 -140.912)" fill="#d3f546"/>
      <path id="패스_15-2" data-name="패스 15" d="M141.909,108.317l-4.188,2.3,4.188,2.05,4.188-2.05Z" transform="translate(-133.282 -104.482)" fill="#d3f546"/>
    </g>
    <g id="_3d_10_3" data-name="3d (10)" transform="translate(-750 -934.215)">
      <path id="패스_10-3" data-name="패스 10" d="M38.021,2.739a.543.543,0,0,1,.523,0l5.119,2.812,2.61-1.278L38.679.1a.822.822,0,0,0-.792,0l-7.6,4.172L32.9,5.551Z" transform="translate(-29.655 0)"/>
      <path id="패스_11-3" data-name="패스 11" d="M15.054,152.867v-5.455l-2.714-1.328v8.195a.822.822,0,0,0,.438.727l7.642,4.033v-3.011l-5.078-2.68a.543.543,0,0,1-.29-.48Z" transform="translate(-12.34 -140.911)"/>
      <path id="패스_12-3" data-name="패스 12" d="M119.678,203.31l4.282,2.26,0-4.756-4.284-2.1Z" transform="translate(-115.878 -191.681)"/>
      <path id="패스_13-3" data-name="패스 13" d="M271.3,205.571l4.285-2.26v-4.593l-4.284,2.1Z" transform="translate(-262.135 -191.682)"/>
      <path id="패스_14-3" data-name="패스 14" d="M276.631,147.412v5.456a.543.543,0,0,1-.29.48l-5.082,2.68v3.011l7.648-4.034a.822.822,0,0,0,.439-.727v-8.194Z" transform="translate(-262.091 -140.912)"/>
      <path id="패스_15-3" data-name="패스 15" d="M141.909,108.317l-4.188,2.3,4.188,2.05,4.188-2.05Z" transform="translate(-133.282 -104.482)"/>
    </g>
    <g id="tools-and-utensils" transform="translate(-899 -913.47)">
      <g id="그룹_793" data-name="그룹 793" transform="translate(0 18.065)">
        <path id="패스_221" data-name="패스 221" d="M16.33,22.071H14.452V18.655a.59.59,0,0,0-.59-.59H3.846a.59.59,0,0,0-.59.59v3.416H1.377A1.379,1.379,0,0,0,0,23.449v5.938a1.379,1.379,0,0,0,1.377,1.377H3.255v3.168a.59.59,0,0,0,.59.59H13.862a.59.59,0,0,0,.59-.59V30.764H16.33a1.379,1.379,0,0,0,1.377-1.377V23.449A1.379,1.379,0,0,0,16.33,22.071ZM4.436,19.246h8.836v2.826H4.436Zm8.836,14.1H4.436V28.513h8.836C13.272,28.66,13.272,33.232,13.272,33.342Zm.59-7.805h-1.5a.59.59,0,1,1,0-1.181h1.5a.59.59,0,0,1,0,1.181Z" transform="translate(0 -18.065)" fill="#fff"/>
      </g>
    </g>
    <g id="tools-and-utensils-2" data-name="tools-and-utensils" transform="translate(-822 -913.47)">
      <g id="그룹_793-2" data-name="그룹 793" transform="translate(0 18.065)">
        <path id="패스_221-2" data-name="패스 221" d="M16.33,22.071H14.452V18.655a.59.59,0,0,0-.59-.59H3.846a.59.59,0,0,0-.59.59v3.416H1.377A1.379,1.379,0,0,0,0,23.449v5.938a1.379,1.379,0,0,0,1.377,1.377H3.255v3.168a.59.59,0,0,0,.59.59H13.862a.59.59,0,0,0,.59-.59V30.764H16.33a1.379,1.379,0,0,0,1.377-1.377V23.449A1.379,1.379,0,0,0,16.33,22.071ZM4.436,19.246h8.836v2.826H4.436Zm8.836,14.1H4.436V28.513h8.836C13.272,28.66,13.272,33.232,13.272,33.342Zm.59-7.805h-1.5a.59.59,0,1,1,0-1.181h1.5a.59.59,0,0,1,0,1.181Z" transform="translate(0 -18.065)" fill="#d3f546"/>
      </g>
    </g>
    <g id="tools-and-utensils-3" data-name="tools-and-utensils" transform="translate(-751 -913.47)">
      <g id="그룹_793-3" data-name="그룹 793" transform="translate(0 18.065)">
        <path id="패스_221-3" data-name="패스 221" d="M16.33,22.071H14.452V18.655a.59.59,0,0,0-.59-.59H3.846a.59.59,0,0,0-.59.59v3.416H1.377A1.379,1.379,0,0,0,0,23.449v5.938a1.379,1.379,0,0,0,1.377,1.377H3.255v3.168a.59.59,0,0,0,.59.59H13.862a.59.59,0,0,0,.59-.59V30.764H16.33a1.379,1.379,0,0,0,1.377-1.377V23.449A1.379,1.379,0,0,0,16.33,22.071ZM4.436,19.246h8.836v2.826H4.436Zm8.836,14.1H4.436V28.513h8.836C13.272,28.66,13.272,33.232,13.272,33.342Zm.59-7.805h-1.5a.59.59,0,1,1,0-1.181h1.5a.59.59,0,0,1,0,1.181Z" transform="translate(0 -18.065)"/>
      </g>
    </g>
    <path id="window-minimize" d="M12.088,21.441H.806A.725.725,0,1,1,.806,20H12.088a.725.725,0,1,1,0,1.441Z" transform="translate(-896 -784.541)" fill="#fff"/>
    <path id="window-minimize-2" data-name="window-minimize" d="M12.088,21.441H.806A.725.725,0,1,1,.806,20H12.088a.725.725,0,1,1,0,1.441Z" transform="translate(-819 -784.541)" fill="#d3f546"/>
    <path id="window-minimize-3" data-name="window-minimize" d="M12.088,21.441H.806A.725.725,0,1,1,.806,20H12.088a.725.725,0,1,1,0,1.441Z" transform="translate(-748 -784.541)"/>
    <g id="그룹_831" data-name="그룹 831" transform="translate(-896 -801.176)">
      <path id="window-minimize-4" data-name="window-minimize" d="M12.088,21.441H.806A.725.725,0,1,1,.806,20H12.088a.725.725,0,1,1,0,1.441Z" transform="translate(0 -14.474)" fill="#fff"/>
      <path id="window-minimize-5" data-name="window-minimize" d="M12.088,1.441H.806A.766.766,0,0,1,0,.72.766.766,0,0,1,.806,0H12.088a.766.766,0,0,1,.806.72A.766.766,0,0,1,12.088,1.441Z" transform="translate(6.967) rotate(90)" fill="#fff"/>
    </g>
    <g id="그룹_833" data-name="그룹 833" transform="translate(-819 -801.176)">
      <path id="window-minimize-6" data-name="window-minimize" d="M12.088,21.441H.806A.725.725,0,1,1,.806,20H12.088a.725.725,0,1,1,0,1.441Z" transform="translate(0 -14.474)" fill="#d3f546"/>
      <path id="window-minimize-7" data-name="window-minimize" d="M12.088,1.441H.806A.766.766,0,0,1,0,.72.766.766,0,0,1,.806,0H12.088a.766.766,0,0,1,.806.72A.766.766,0,0,1,12.088,1.441Z" transform="translate(6.967) rotate(90)" fill="#d3f546"/>
    </g>
    <g id="그룹_836" data-name="그룹 836" transform="translate(-748 -801.176)">
      <path id="window-minimize-8" data-name="window-minimize" d="M12.088,21.441H.806A.725.725,0,1,1,.806,20H12.088a.725.725,0,1,1,0,1.441Z" transform="translate(0 -14.474)"/>
      <path id="window-minimize-9" data-name="window-minimize" d="M12.088,1.441H.806A.766.766,0,0,1,0,.72.766.766,0,0,1,.806,0H12.088a.766.766,0,0,1,.806.72A.766.766,0,0,1,12.088,1.441Z" transform="translate(6.967) rotate(90)"/>
    </g>
    <g id="Blue_Glyphs" transform="translate(-900 -1050.176)">
      <g id="XMLID_1372_" transform="translate(1 1)">
        <g id="그룹_796" data-name="그룹 796">
          <path id="XMLID_1381_" d="M28.3,30.61a2.31,2.31,0,1,0,2.31-2.31A2.311,2.311,0,0,0,28.3,30.61Zm3.557,0a1.248,1.248,0,1,1-1.248-1.248A1.246,1.246,0,0,1,31.857,30.61Z" transform="translate(-21.053 -21.053)" fill="#fff" stroke="#fff" stroke-width="0.7"/>
          <path id="XMLID_1380_" d="M35.531,7.053a.532.532,0,0,0,.531-.531V1.531a.531.531,0,1,0-1.062,0V6.522A.532.532,0,0,0,35.531,7.053Z" transform="translate(-25.974 -1)" fill="#fff" stroke="#fff" stroke-width="0.7"/>
          <path id="XMLID_1379_" d="M7.053,35.531A.532.532,0,0,0,6.522,35H1.531a.531.531,0,1,0,0,1.062H6.522A.532.532,0,0,0,7.053,35.531Z" transform="translate(-1 -25.974)" fill="#fff" stroke="#fff" stroke-width="0.7"/>
          <path id="XMLID_1378_" d="M35.531,50.2a.532.532,0,0,0-.531.531v4.991a.531.531,0,1,0,1.062,0V50.731A.532.532,0,0,0,35.531,50.2Z" transform="translate(-25.974 -37.139)" fill="#fff" stroke="#fff" stroke-width="0.7"/>
          <path id="XMLID_1377_" d="M55.722,35H50.731a.531.531,0,1,0,0,1.062h4.991a.531.531,0,1,0,0-1.062Z" transform="translate(-37.139 -25.974)" fill="#fff" stroke="#fff" stroke-width="0.7"/>
        </g>
        <path id="XMLID_1376_" d="M47.778,14.767h1.088A7.712,7.712,0,0,0,43,8.9V9.988A6.608,6.608,0,0,1,47.778,14.767Z" transform="translate(-31.85 -6.803)" fill="#fff" stroke="#fff" stroke-width="0.7"/>
        <path id="XMLID_1375_" d="M14.767,9.988V8.9A7.712,7.712,0,0,0,8.9,14.767H9.988A6.608,6.608,0,0,1,14.767,9.988Z" transform="translate(-6.803 -6.803)" fill="#fff" stroke="#fff" stroke-width="0.7"/>
        <path id="XMLID_1374_" d="M9.988,43H8.9a7.712,7.712,0,0,0,5.867,5.867V47.778A6.608,6.608,0,0,1,9.988,43Z" transform="translate(-6.803 -31.85)" fill="#fff" stroke="#fff" stroke-width="0.7"/>
        <path id="XMLID_1373_" d="M43,47.778v1.088A7.712,7.712,0,0,0,48.867,43H47.778A6.608,6.608,0,0,1,43,47.778Z" transform="translate(-31.85 -31.85)" fill="#fff" stroke="#fff" stroke-width="0.7"/>
      </g>
    </g>
    <g id="Blue_Glyphs-2" data-name="Blue_Glyphs" transform="translate(-823 -1050.176)">
      <g id="XMLID_1372_2" data-name="XMLID_1372_" transform="translate(1 1)">
        <g id="그룹_796-2" data-name="그룹 796">
          <path id="XMLID_1381_2" data-name="XMLID_1381_" d="M28.3,30.61a2.31,2.31,0,1,0,2.31-2.31A2.311,2.311,0,0,0,28.3,30.61Zm3.557,0a1.248,1.248,0,1,1-1.248-1.248A1.246,1.246,0,0,1,31.857,30.61Z" transform="translate(-21.053 -21.053)" fill="#d3f546" stroke="#d3f546" stroke-width="0.7"/>
          <path id="XMLID_1380_2" data-name="XMLID_1380_" d="M35.531,7.053a.532.532,0,0,0,.531-.531V1.531a.531.531,0,1,0-1.062,0V6.522A.532.532,0,0,0,35.531,7.053Z" transform="translate(-25.974 -1)" fill="#d3f546" stroke="#d3f546" stroke-width="0.7"/>
          <path id="XMLID_1379_2" data-name="XMLID_1379_" d="M7.053,35.531A.532.532,0,0,0,6.522,35H1.531a.531.531,0,1,0,0,1.062H6.522A.532.532,0,0,0,7.053,35.531Z" transform="translate(-1 -25.974)" fill="#d3f546" stroke="#d3f546" stroke-width="0.7"/>
          <path id="XMLID_1378_2" data-name="XMLID_1378_" d="M35.531,50.2a.532.532,0,0,0-.531.531v4.991a.531.531,0,1,0,1.062,0V50.731A.532.532,0,0,0,35.531,50.2Z" transform="translate(-25.974 -37.139)" fill="#d3f546" stroke="#d3f546" stroke-width="0.7"/>
          <path id="XMLID_1377_2" data-name="XMLID_1377_" d="M55.722,35H50.731a.531.531,0,1,0,0,1.062h4.991a.531.531,0,1,0,0-1.062Z" transform="translate(-37.139 -25.974)" fill="#d3f546" stroke="#d3f546" stroke-width="0.7"/>
        </g>
        <path id="XMLID_1376_2" data-name="XMLID_1376_" d="M47.778,14.767h1.088A7.712,7.712,0,0,0,43,8.9V9.988A6.608,6.608,0,0,1,47.778,14.767Z" transform="translate(-31.85 -6.803)" fill="#d3f546" stroke="#d3f546" stroke-width="0.7"/>
        <path id="XMLID_1375_2" data-name="XMLID_1375_" d="M14.767,9.988V8.9A7.712,7.712,0,0,0,8.9,14.767H9.988A6.608,6.608,0,0,1,14.767,9.988Z" transform="translate(-6.803 -6.803)" fill="#d3f546" stroke="#d3f546" stroke-width="0.7"/>
        <path id="XMLID_1374_2" data-name="XMLID_1374_" d="M9.988,43H8.9a7.712,7.712,0,0,0,5.867,5.867V47.778A6.608,6.608,0,0,1,9.988,43Z" transform="translate(-6.803 -31.85)" fill="#d3f546" stroke="#d3f546" stroke-width="0.7"/>
        <path id="XMLID_1373_2" data-name="XMLID_1373_" d="M43,47.778v1.088A7.712,7.712,0,0,0,48.867,43H47.778A6.608,6.608,0,0,1,43,47.778Z" transform="translate(-31.85 -31.85)" fill="#d3f546" stroke="#d3f546" stroke-width="0.7"/>
      </g>
    </g>
    <g id="Blue_Glyphs-3" data-name="Blue_Glyphs" transform="translate(-752 -1050.176)">
      <g id="XMLID_1372_3" data-name="XMLID_1372_" transform="translate(1 1)">
        <g id="그룹_796-3" data-name="그룹 796">
          <path id="XMLID_1381_3" data-name="XMLID_1381_" d="M28.3,30.61a2.31,2.31,0,1,0,2.31-2.31A2.311,2.311,0,0,0,28.3,30.61Zm3.557,0a1.248,1.248,0,1,1-1.248-1.248A1.246,1.246,0,0,1,31.857,30.61Z" transform="translate(-21.053 -21.053)" stroke="#000" stroke-width="0.7"/>
          <path id="XMLID_1380_3" data-name="XMLID_1380_" d="M35.531,7.053a.532.532,0,0,0,.531-.531V1.531a.531.531,0,1,0-1.062,0V6.522A.532.532,0,0,0,35.531,7.053Z" transform="translate(-25.974 -1)" stroke="#000" stroke-width="0.7"/>
          <path id="XMLID_1379_3" data-name="XMLID_1379_" d="M7.053,35.531A.532.532,0,0,0,6.522,35H1.531a.531.531,0,1,0,0,1.062H6.522A.532.532,0,0,0,7.053,35.531Z" transform="translate(-1 -25.974)" stroke="#000" stroke-width="0.7"/>
          <path id="XMLID_1378_3" data-name="XMLID_1378_" d="M35.531,50.2a.532.532,0,0,0-.531.531v4.991a.531.531,0,1,0,1.062,0V50.731A.532.532,0,0,0,35.531,50.2Z" transform="translate(-25.974 -37.139)" stroke="#000" stroke-width="0.7"/>
          <path id="XMLID_1377_3" data-name="XMLID_1377_" d="M55.722,35H50.731a.531.531,0,1,0,0,1.062h4.991a.531.531,0,1,0,0-1.062Z" transform="translate(-37.139 -25.974)" stroke="#000" stroke-width="0.7"/>
        </g>
        <path id="XMLID_1376_3" data-name="XMLID_1376_" d="M47.778,14.767h1.088A7.712,7.712,0,0,0,43,8.9V9.988A6.608,6.608,0,0,1,47.778,14.767Z" transform="translate(-31.85 -6.803)" stroke="#000" stroke-width="0.7"/>
        <path id="XMLID_1375_3" data-name="XMLID_1375_" d="M14.767,9.988V8.9A7.712,7.712,0,0,0,8.9,14.767H9.988A6.608,6.608,0,0,1,14.767,9.988Z" transform="translate(-6.803 -6.803)" stroke="#000" stroke-width="0.7"/>
        <path id="XMLID_1374_3" data-name="XMLID_1374_" d="M9.988,43H8.9a7.712,7.712,0,0,0,5.867,5.867V47.778A6.608,6.608,0,0,1,9.988,43Z" transform="translate(-6.803 -31.85)" stroke="#000" stroke-width="0.7"/>
        <path id="XMLID_1373_3" data-name="XMLID_1373_" d="M43,47.778v1.088A7.712,7.712,0,0,0,48.867,43H47.778A6.608,6.608,0,0,1,43,47.778Z" transform="translate(-31.85 -31.85)" stroke="#000" stroke-width="0.7"/>
      </g>
    </g>
    <g id="Icon-3" data-name="Icon" transform="translate(-901.25 -1172.065)">
      <path id="패스_226" data-name="패스 226" d="M9.138,15.549H5.689a.688.688,0,0,1,0-1.376h3.55A5.577,5.577,0,0,1,9.67,12.8H5.689a.688.688,0,1,1,0-1.376h4.824a5.32,5.32,0,0,1,.431-.477,5.907,5.907,0,0,1,1.137-.917H5.689a.688.688,0,1,1,0-1.376h7.338a.688.688,0,0,1,.688.679,5.9,5.9,0,0,1,1.605-.22,6,6,0,0,1,1.146.11V3.855A1.614,1.614,0,0,0,14.861,2.25H3.855A1.614,1.614,0,0,0,2.25,3.855V18.53a1.614,1.614,0,0,0,1.605,1.605H11.44a4.476,4.476,0,0,1-.5-.44,6.1,6.1,0,0,1-1.807-4.146ZM5.689,5.919h7.338a.688.688,0,1,1,0,1.376H5.689a.688.688,0,0,1,0-1.376ZM15.32,10.5a4.733,4.733,0,0,1,2.871.972l-3.155,3.155H10.569A4.788,4.788,0,0,1,15.32,10.5Zm4.815,4.815a4.733,4.733,0,0,1-.972,2.871L16.292,15.32l2.871-2.871A4.733,4.733,0,0,1,20.135,15.32Zm-5.1.688,3.155,3.155a4.733,4.733,0,0,1-2.871.972,4.788,4.788,0,0,1-4.751-4.127Z" fill="#fff"/>
    </g>
    <g id="Icon-4" data-name="Icon" transform="translate(-824.25 -1172.065)">
      <path id="패스_226-2" data-name="패스 226" d="M9.138,15.549H5.689a.688.688,0,0,1,0-1.376h3.55A5.577,5.577,0,0,1,9.67,12.8H5.689a.688.688,0,1,1,0-1.376h4.824a5.32,5.32,0,0,1,.431-.477,5.907,5.907,0,0,1,1.137-.917H5.689a.688.688,0,1,1,0-1.376h7.338a.688.688,0,0,1,.688.679,5.9,5.9,0,0,1,1.605-.22,6,6,0,0,1,1.146.11V3.855A1.614,1.614,0,0,0,14.861,2.25H3.855A1.614,1.614,0,0,0,2.25,3.855V18.53a1.614,1.614,0,0,0,1.605,1.605H11.44a4.476,4.476,0,0,1-.5-.44,6.1,6.1,0,0,1-1.807-4.146ZM5.689,5.919h7.338a.688.688,0,1,1,0,1.376H5.689a.688.688,0,0,1,0-1.376ZM15.32,10.5a4.733,4.733,0,0,1,2.871.972l-3.155,3.155H10.569A4.788,4.788,0,0,1,15.32,10.5Zm4.815,4.815a4.733,4.733,0,0,1-.972,2.871L16.292,15.32l2.871-2.871A4.733,4.733,0,0,1,20.135,15.32Zm-5.1.688,3.155,3.155a4.733,4.733,0,0,1-2.871.972,4.788,4.788,0,0,1-4.751-4.127Z" fill="#d3f546"/>
    </g>
    <g id="Icon-5" data-name="Icon" transform="translate(-753.25 -1172.065)">
      <path id="패스_226-3" data-name="패스 226" d="M9.138,15.549H5.689a.688.688,0,0,1,0-1.376h3.55A5.577,5.577,0,0,1,9.67,12.8H5.689a.688.688,0,1,1,0-1.376h4.824a5.32,5.32,0,0,1,.431-.477,5.907,5.907,0,0,1,1.137-.917H5.689a.688.688,0,1,1,0-1.376h7.338a.688.688,0,0,1,.688.679,5.9,5.9,0,0,1,1.605-.22,6,6,0,0,1,1.146.11V3.855A1.614,1.614,0,0,0,14.861,2.25H3.855A1.614,1.614,0,0,0,2.25,3.855V18.53a1.614,1.614,0,0,0,1.605,1.605H11.44a4.476,4.476,0,0,1-.5-.44,6.1,6.1,0,0,1-1.807-4.146ZM5.689,5.919h7.338a.688.688,0,1,1,0,1.376H5.689a.688.688,0,0,1,0-1.376ZM15.32,10.5a4.733,4.733,0,0,1,2.871.972l-3.155,3.155H10.569A4.788,4.788,0,0,1,15.32,10.5Zm4.815,4.815a4.733,4.733,0,0,1-.972,2.871L16.292,15.32l2.871-2.871A4.733,4.733,0,0,1,20.135,15.32Zm-5.1.688,3.155,3.155a4.733,4.733,0,0,1-2.871.972,4.788,4.788,0,0,1-4.751-4.127Z"/>
    </g>
    <g id="g3378" transform="translate(-1166.077 216.242)">
      <g id="g3380" transform="translate(0 -682.665)">
        <g id="g3382" clip-path="url(#clip-path)">
          <g id="g3388" transform="translate(0.612 5.873)">
            <path id="path3390" d="M-507.971-310.211h1.183a2.447,2.447,0,0,0,2.447-2.447v-4.894A2.447,2.447,0,0,0-506.789-320h-14.763A2.447,2.447,0,0,0-524-317.552v4.894a2.447,2.447,0,0,0,2.447,2.447h1.183" transform="translate(523.999 319.999)" fill="none" stroke="#fff" stroke-linecap="round" stroke-linejoin="round" stroke-miterlimit="10" stroke-width="1.5"/>
          </g>
          <g id="g3392" transform="translate(3.263 12.398)">
            <path id="path3394" d="M-454.977,0h-14.355" transform="translate(469.332)" fill="none" stroke="#fff" stroke-linecap="round" stroke-linejoin="round" stroke-miterlimit="10" stroke-width="1.5"/>
          </g>
          <g id="g3396" transform="translate(4.241 12.398)">
            <path id="path3398" d="M-38.776-249.462h9.951a1.223,1.223,0,0,0,1.223-1.223v-6.648H-40v6.648A1.223,1.223,0,0,0-38.776-249.462Z" transform="translate(40 257.333)" fill="none" stroke="#fff" stroke-linecap="round" stroke-linejoin="round" stroke-miterlimit="10" stroke-width="1.5"/>
          </g>
          <g id="g3400" transform="translate(8.809 15.008)">
            <path id="path3402" d="M-103.4,0h-3.263" transform="translate(106.666)" fill="none" stroke="#fff" stroke-linecap="round" stroke-linejoin="round" stroke-miterlimit="10" stroke-width="1.5"/>
          </g>
          <g id="g3404" transform="translate(8.809 17.618)">
            <path id="path3406" d="M-103.4,0h-3.263" transform="translate(106.666)" fill="none" stroke="#fff" stroke-linecap="round" stroke-linejoin="round" stroke-miterlimit="10" stroke-width="1.5"/>
          </g>
          <g id="g3408" transform="translate(3.263 8.483)">
            <path id="path3410" d="M-62.042,0H-64" transform="translate(64)" fill="none" stroke="#fff" stroke-linecap="round" stroke-linejoin="round" stroke-miterlimit="10" stroke-width="1.5"/>
          </g>
          <g id="g3412" transform="translate(4.241 0.612)">
            <path id="path3414" d="M-77.553,0h7.5A2.447,2.447,0,0,1-67.6,2.447V5.261H-80V2.447A2.447,2.447,0,0,1-77.553,0Z" transform="translate(80)" fill="none" stroke="#fff" stroke-linecap="round" stroke-linejoin="round" stroke-miterlimit="10" stroke-width="1.5"/>
          </g>
        </g>
      </g>
    </g>
    <g id="placeholder-on-map-paper-in-perspective" transform="translate(-1332.537 -870.114)">
      <path id="패스_214" data-name="패스 214" d="M180.157,72.939c0,4.847-4.035,5.756-5.933,10.415a.454.454,0,0,1-.841,0c-1.712-4.2-5.162-5.352-5.822-9.093a6.491,6.491,0,0,1,5.624-7.644A6.355,6.355,0,0,1,180.157,72.939Zm-3,0a3.355,3.355,0,1,0-3.355,3.355A3.355,3.355,0,0,0,177.159,72.939Z" transform="translate(0 0)" fill="#fff"/>
    </g>
    <line id="선_148" data-name="선 148" x2="10" transform="translate(-1029.5 -532.232)" fill="none" stroke="#191919" stroke-width="1"/>
    <g id="그룹_834" data-name="그룹 834" transform="translate(-2087.447 -725)">
      <g id="check-circle" transform="translate(1035.689 214.12)">
        <path id="패스_216" data-name="패스 216" d="M10.628,14.193l5.983-6.472,1.4,1.308-7.378,8L5.9,11.953l1.311-1.405Z" transform="translate(15.858 18.506)" fill-rule="evenodd"/>
      </g>
    </g>
  </g>
</svg>
