<svg xmlns="http://www.w3.org/2000/svg" width="143.104" height="9.952" viewBox="0 0 143.104 9.952">
  <g id="그룹_856" data-name="그룹 856" transform="translate(-194 -871.548)">
    <g id="layer1" transform="translate(284 871.548)">
      <path id="path9429" d="M2.73,291.965a.708.708,0,0,0-.466,1.254L6.6,296.929l-4.331,3.709a.708.708,0,1,0,.919,1.071l4.959-4.243a.708.708,0,0,0,0-1.077l-4.959-4.247a.707.707,0,0,0-.453-.179Z" transform="translate(-1.976 -291.965)" fill="#fff"/>
    </g>
    <g id="그룹_853" data-name="그룹 853" transform="translate(337.104 881.5) rotate(180)">
      <g id="layer1-2" data-name="layer1" transform="translate(6.415 9.952) rotate(180)">
        <path id="path9429-2" data-name="path9429" d="M.754,0A.708.708,0,0,0,.289,1.254L4.62,4.965.289,8.674a.708.708,0,1,0,.919,1.071L6.167,5.5a.708.708,0,0,0,0-1.077L1.208.179A.707.707,0,0,0,.754,0Z" transform="translate(0 0)" fill="#fff"/>
      </g>
      <g id="layer1-3" data-name="layer1" transform="translate(11.104 9.952) rotate(180)">
        <path id="path9429-3" data-name="path9429" d="M.754,0A.708.708,0,0,0,.289,1.254L4.62,4.965.289,8.674a.708.708,0,1,0,.919,1.071L6.167,5.5a.708.708,0,0,0,0-1.077L1.208.179A.707.707,0,0,0,.754,0Z" transform="translate(0 0)" fill="#fff"/>
      </g>
    </g>
    <g id="layer1-4" data-name="layer1" transform="translate(247.415 881.5) rotate(180)">
      <path id="path9429-4" data-name="path9429" d="M2.73,291.965a.708.708,0,0,0-.466,1.254L6.6,296.929l-4.331,3.709a.708.708,0,1,0,.919,1.071l4.959-4.243a.708.708,0,0,0,0-1.077l-4.959-4.247a.707.707,0,0,0-.453-.179Z" transform="translate(-1.976 -291.965)" fill="#fff"/>
    </g>
    <g id="그룹_853-2" data-name="그룹 853" transform="translate(194 871.548)">
      <g id="layer1-5" data-name="layer1" transform="translate(6.415 9.952) rotate(180)">
        <path id="path9429-5" data-name="path9429" d="M.754,0A.708.708,0,0,0,.289,1.254L4.62,4.965.289,8.674a.708.708,0,1,0,.919,1.071L6.167,5.5a.708.708,0,0,0,0-1.077L1.208.179A.707.707,0,0,0,.754,0Z" transform="translate(0 0)" fill="#fff"/>
      </g>
      <g id="layer1-6" data-name="layer1" transform="translate(11.104 9.952) rotate(180)">
        <path id="path9429-6" data-name="path9429" d="M.754,0A.708.708,0,0,0,.289,1.254L4.62,4.965.289,8.674a.708.708,0,1,0,.919,1.071L6.167,5.5a.708.708,0,0,0,0-1.077L1.208.179A.707.707,0,0,0,.754,0Z" transform="translate(0 0)" fill="#fff"/>
      </g>
    </g>
  </g>
</svg>
