<svg xmlns="http://www.w3.org/2000/svg" width="126.521" height="15.729" viewBox="0 0 126.521 15.729">
  <g id="그룹_857" data-name="그룹 857" transform="translate(-592.006 -153.478)">
    <path id="infoview-wh" d="M2.252,7.761q0,.614,0,1.228h0v.342q0,.714,0,1.427c0,1.169,0,2.339.007,3.508A1.383,1.383,0,0,0,3.51,15.744c.331.02.663.016,1,.012h0c.162,0,.323,0,.484,0l1.34.008q1,.006,2.009.01,1.535.005,3.07,0c.148,0,.3,0,.443-.009h0c.275-.008.55-.016.823,0a1.459,1.459,0,0,0,1.442-1.509c0-.58,0-1.159,0-1.739V12.08q0-.945,0-1.889V9.247q0-.258,0-.517h0c0-.414,0-.827,0-1.241a1.808,1.808,0,0,0-.46-1.246l-1.21-1.378h0q-.928-1.057-1.857-2.112a1.324,1.324,0,0,0-1.076-.5c-.539.016-1.079.013-1.618.009h0l-.679,0H3.548a1.332,1.332,0,0,0-1.221,1,3.268,3.268,0,0,0-.071.815Q2.249,5.919,2.252,7.761Zm10.512,6.451-.014.024H11.187q-1.561,0-3.119,0h-.3c-1.309,0-2.618,0-3.927.016-.209,0-.269-.072-.267-.3q.02-1.929.019-3.858c0-.763,0-1.526-.008-2.288h0q0-.748-.007-1.5c0-.569,0-1.138,0-1.714h0q0-.4,0-.8h.307l.992-.006h0Q6.03,3.78,7.187,3.774c.751,0,1.5-.005,2.253.006a.417.417,0,0,1,.27.14q.96,1.065,1.908,2.144c.37.419.739.839,1.1,1.266a.378.378,0,0,1,.059.221q0,3.321-.006,6.642h0S12.77,14.2,12.764,14.211ZM10.242,9.769h1.242c0-.131,0-.259,0-.384,0-.29,0-.566.006-.842.009-.242-.053-.319-.277-.315-1.075.016-2.151.019-3.227.023h0l-.7,0q-.637,0-1.274,0H5.12c-.05,0-.1,0-.158.009h0l-.095.007c0,.126,0,.249,0,.371,0,.28.006.552-.008.823-.013.252.057.312.273.311,1.3-.007,2.6-.007,3.9-.006ZM4.868,11.233H9.676c.524,0,1.048,0,1.572-.005.195,0,.242.075.235.284-.01.281-.008.562-.006.846h0c0,.119,0,.238,0,.358l-.069.014h0a.494.494,0,0,1-.1.016h-.924q-.6,0-1.2,0c-.2,0-.409.006-.613.01h0c-.218,0-.436.01-.654.011q-.544,0-1.088,0c-.568,0-1.135,0-1.7,0-.2,0-.277-.058-.266-.3.013-.27.011-.541.008-.836C4.869,11.509,4.868,11.375,4.868,11.233ZM9.488,6.782V5.27h0l-.061-.007a.505.505,0,0,0-.057,0H5.161c-.14,0-.21,0-.245.04s-.037.124-.037.293q0,.107,0,.214c0,.238,0,.476-.012.714-.011.2.038.268.223.266.7-.007,1.4-.006,2.095,0h2.3Z" transform="translate(644.608 151.228)" fill="#fff" fill-rule="evenodd"/>
    <path id="mapview-wh" d="M1.507,15.465,16.918,8.858,1.507,2.25,1.5,7.389,12.513,8.858,1.5,10.326Z" transform="translate(590.506 151.535)" fill="#fff"/>
    <g id="search-results" transform="translate(603.09 53.762)">
      <path id="패스_239" data-name="패스 239" d="M109.8,101.7a5.732,5.732,0,1,0,0,8.106A5.733,5.733,0,0,0,109.8,101.7Zm-.818,7.288a4.576,4.576,0,1,1,1.34-3.235,4.576,4.576,0,0,1-1.34,3.235Z" transform="translate(0 0)" fill="#fff"/>
      <path id="패스_240" data-name="패스 240" d="M560.124,558.41l4.516,4.516a1.212,1.212,0,1,1-1.714,1.714l-4.516-4.516Z" transform="translate(-449.558 -449.551)" fill="#fff"/>
      <path id="패스_241" data-name="패스 241" d="M238.435,263.468h-3.586a.289.289,0,0,1,0-.578h3.586a.289.289,0,0,1,0,.578Z" transform="translate(-131.951 -159.728)" fill="#fff"/>
      <path id="패스_242" data-name="패스 242" d="M239.139,343.1h-4.29a.289.289,0,0,1,0-.578h4.29a.289.289,0,1,1,0,.578Z" transform="translate(-131.951 -237.823)" fill="#fff"/>
      <path id="패스_243" data-name="패스 243" d="M239.872,422.728h-4.993a.289.289,0,1,1,0-.578h4.993a.289.289,0,0,1,0,.578Z" transform="translate(-131.981 -315.918)" fill="#fff"/>
      <path id="패스_244" data-name="패스 244" d="M240.547,502.358h-5.7a.289.289,0,1,1,0-.578h5.7a.289.289,0,0,1,0,.578Z" transform="translate(-131.951 -394.013)" fill="#fff"/>
    </g>
  </g>
</svg>
