<svg xmlns="http://www.w3.org/2000/svg" width="59.74" height="5.171" viewBox="0 0 59.74 5.171">
  <g id="그룹_856" data-name="그룹 856" transform="translate(-1231.26 -307.829)">
    <path id="Down_Arrow_3_" d="M24.739,45.17a.43.43,0,0,1-.3-.126l-4.309-4.309a.431.431,0,0,1,.609-.609l4,4,4-4a.431.431,0,1,1,.609.609l-4.309,4.309A.43.43,0,0,1,24.739,45.17Z" transform="translate(1311 353) rotate(180)" fill="#fff"/>
    <path id="Down_Arrow_3_2" data-name="Down_Arrow_3_" d="M24.739,45.17a.43.43,0,0,1-.3-.126l-4.309-4.309a.431.431,0,0,1,.609-.609l4,4,4-4a.431.431,0,1,1,.609.609l-4.309,4.309A.43.43,0,0,1,24.739,45.17Z" transform="translate(1211.261 267.83)" fill="#fff"/>
  </g>
</svg>
